<svg xmlns="http://www.w3.org/2000/svg" width="51.5" height="51.5" viewBox="0 0 51.5 51.5">
  <path id="Icon_awesome-user-circle" data-name="Icon awesome-user-circle" d="M25.75.563A25.75,25.75,0,1,0,51.5,26.313,25.746,25.746,0,0,0,25.75.563Zm0,9.968a9.137,9.137,0,1,1-9.137,9.137A9.137,9.137,0,0,1,25.75,10.53Zm0,35.718a19.9,19.9,0,0,1-15.211-7.081,11.576,11.576,0,0,1,10.227-6.209,2.541,2.541,0,0,1,.737.114,13.747,13.747,0,0,0,4.247.716A13.7,13.7,0,0,0,30,33.072a2.54,2.54,0,0,1,.737-.114,11.577,11.577,0,0,1,10.227,6.209A19.9,19.9,0,0,1,25.75,46.248Z" transform="translate(0 -0.563)" fill="#e5383b"/>
</svg>
