<svg xmlns="http://www.w3.org/2000/svg" width="53.454" height="53.454" viewBox="0 0 53.454 53.454">
  <path id="Icon_ionic-md-color-palette" data-name="Icon ionic-md-color-palette" d="M31.227,4.5a26.727,26.727,0,0,0,0,53.454A4.375,4.375,0,0,0,35.681,53.5a4.146,4.146,0,0,0-1.188-2.97,4.147,4.147,0,0,1-1.188-2.97,4.375,4.375,0,0,1,4.454-4.454h5.345A14.892,14.892,0,0,0,57.954,28.257C57.954,15.191,45.927,4.5,31.227,4.5ZM14.894,31.227a4.454,4.454,0,1,1,0-8.909,4.454,4.454,0,1,1,0,8.909ZM23.8,19.348a4.375,4.375,0,0,1-4.454-4.454,4.454,4.454,0,0,1,8.909,0A4.375,4.375,0,0,1,23.8,19.348Zm14.848,0A4.375,4.375,0,0,1,34.2,14.894a4.454,4.454,0,1,1,8.909,0A4.375,4.375,0,0,1,38.651,19.348ZM47.56,31.227a4.454,4.454,0,1,1,4.454-4.454A4.375,4.375,0,0,1,47.56,31.227Z" transform="translate(-4.5 -4.5)" fill="#e5383b"/>
</svg>
